<svg xmlns="http://www.w3.org/2000/svg" viewBox="0 0 104 41.8"><defs><style>.cls-1{fill:#fff;}.cls-2{fill:#a7a9ac;}</style></defs><title>ClaimPIX_logo</title><g id="Layer_2" data-name="Layer 2"><g id="Layer_1-2" data-name="Layer 1"><path class="cls-1" d="M2.89,34.8,7.08,37a11.59,11.59,0,0,1,0-3.85C4.3,33,3.26,34.14,2.89,34.8Z"/><path class="cls-1" d="M89.79,7.14h1.67V4.53a.55.55,0,1,1,1.1,0V7.14h1.25V4.53a.55.55,0,1,1,1.09,0V7.14h1.25V4.53a.55.55,0,1,1,1.09,0V7.14h1.25V4.53A.55.55,0,0,1,99,4a.55.55,0,0,1,.55.55V7.14h1.67V2.74H89.79Z"/><path class="cls-1" d="M70.09,20h-2v4h2a1.76,1.76,0,0,0,1.71-2A1.77,1.77,0,0,0,70.09,20Z"/><path class="cls-1" d="M32.65,28.68a2.14,2.14,0,0,0,4.26,0V26.86H34.69C33.25,26.86,32.65,27.67,32.65,28.68Z"/><path class="cls-1" d="M2.74,9.88V31.27A8.83,8.83,0,0,1,9,30.71a1.39,1.39,0,0,1,.9.63A1.43,1.43,0,0,1,10,32.43c0,.08,0,.17-.07.26a4.55,4.55,0,0,1,1.44-.15,1,1,0,0,1,1,1.21c-.38,1.69-.61,3.9,1.9,5.31h87V9.88H2.74ZM19,30.52a12.33,12.33,0,0,0,3.79-.61l.39,1.8a14.26,14.26,0,0,1-4.21.65c-3.28,0-5.74-1.92-5.74-5.94v-3.5c0-4,2.46-5.94,5.74-5.94a13,13,0,0,1,4.21.7l-.39,1.75A13,13,0,0,0,19,18.82c-2.2,0-3.69,1.27-3.69,4.23v3.24C15.29,29.32,16.78,30.52,19,30.52Zm8.9,1.56h-2V16.19l2-.44Zm11-3.38a3.89,3.89,0,0,1-4.12,3.66c-2.39,0-4.19-1.6-4.19-3.66s1.67-3.42,4.1-3.42h2.22v-.61c0-1.53-.75-2.39-2.17-2.39a10.41,10.41,0,0,0-3,.51l-.44-1.67a11.34,11.34,0,0,1,3.42-.61,3.88,3.88,0,0,1,4.16,4.16Zm5,3.38h-2V20.79h2Zm-1-13.22a1.24,1.24,0,1,1,1.27-1.25A1.29,1.29,0,0,1,42.94,18.86ZM61.78,32.08h-2V25.2c0-1.95-.83-2.92-2.13-2.92s-2.12,1.12-2.12,3.29v6.51h-2V25.57c0-2.17-.83-3.29-2.15-3.29s-2.1,1-2.1,2.92v6.88h-2V25c0-3,1.89-4.47,4.12-4.47a3.34,3.34,0,0,1,3.14,2.14,3.37,3.37,0,0,1,3.13-2.14c2.3,0,4.14,1.49,4.14,4.47Zm8.42-5.41H68.14v5.41H64.92V17.26H70.2A4.68,4.68,0,0,1,75.07,22,4.63,4.63,0,0,1,70.2,26.67Zm10.17,5.41H77.15V17.26h3.22ZM94.16,17.26l-3.83,7,4.29,7.78h-3.7l-2.48-4.73-2.59,4.73H82.24l4.29-7.72-3.83-7.1h3.57l2.15,4.1,2.26-4.1Z"/><path class="cls-2" d="M12.35,33.75a1,1,0,0,0-1-1.21,4.55,4.55,0,0,0-1.44.15c-.28,1.17-.63,3.77.39,5.21a2.93,2.93,0,0,0,2.38,1.16h1.54C11.74,37.65,12,35.44,12.35,33.75Z"/><path d="M19,18.82a13,13,0,0,1,3.79.61l.39-1.75A13,13,0,0,0,19,17c-3.28,0-5.74,1.93-5.74,5.94v3.5c0,4,2.46,5.94,5.74,5.94a14.26,14.26,0,0,0,4.21-.65l-.39-1.8a12.33,12.33,0,0,1-3.79.61c-2.2,0-3.69-1.2-3.69-4.23V23.05C15.29,20.09,16.78,18.82,19,18.82Z"/><polygon points="25.86 32.08 27.88 32.08 27.88 15.75 25.86 16.19 25.86 32.08"/><path d="M34.74,20.51a11.34,11.34,0,0,0-3.42.61l.44,1.67a10.41,10.41,0,0,1,3-.51c1.42,0,2.17.86,2.17,2.39v.61H34.69c-2.43,0-4.1,1.21-4.1,3.42s1.8,3.66,4.19,3.66A3.89,3.89,0,0,0,38.9,28.7v-4A3.88,3.88,0,0,0,34.74,20.51Zm2.17,8.19a2.14,2.14,0,0,1-4.26,0c0-1,.6-1.82,2-1.82h2.22Z"/><rect x="41.93" y="20.79" width="2.02" height="11.29"/><path d="M42.94,16.39a1.24,1.24,0,1,0,0,2.47,1.29,1.29,0,0,0,1.27-1.25A1.26,1.26,0,0,0,42.94,16.39Z"/><path d="M57.64,20.51a3.37,3.37,0,0,0-3.13,2.14,3.34,3.34,0,0,0-3.14-2.14c-2.23,0-4.12,1.49-4.12,4.47v7.1h2V25.2c0-1.95.81-2.92,2.1-2.92s2.15,1.12,2.15,3.29v6.51h2V25.57c0-2.17.83-3.29,2.12-3.29s2.13,1,2.13,2.92v6.88h2V25C61.78,22,59.94,20.51,57.64,20.51Z"/><path d="M70.2,17.26H64.92V32.08h3.22V26.67H70.2A4.63,4.63,0,0,0,75.07,22,4.68,4.68,0,0,0,70.2,17.26ZM70.09,24h-2V20h2a1.77,1.77,0,0,1,1.71,2A1.76,1.76,0,0,1,70.09,24Z"/><rect x="77.15" y="17.26" width="3.22" height="14.82"/><polygon points="86.27 17.26 82.7 17.26 86.53 24.36 82.24 32.08 85.86 32.08 88.44 27.34 90.92 32.08 94.62 32.08 90.33 24.3 94.16 17.26 90.68 17.26 88.42 21.36 86.27 17.26"/><path d="M102.63,0H88.42a1.37,1.37,0,0,0-1.37,1.37V7.14H1.37A1.37,1.37,0,0,0,0,8.51V34.94A1.37,1.37,0,0,0,.84,36.2l8.54,4.55a6.19,6.19,0,0,0,3.19,1h90.06A1.37,1.37,0,0,0,104,40.43V1.37A1.37,1.37,0,0,0,102.63,0ZM7.08,37,2.89,34.8c.37-.66,1.41-1.83,4.16-1.61A11.59,11.59,0,0,0,7.08,37Zm94.18,2H12.71a2.93,2.93,0,0,1-2.38-1.16c-1-1.44-.67-4-.39-5.21,0-.09.05-.18.07-.26a1.43,1.43,0,0,0-.14-1.09,1.39,1.39,0,0,0-.9-.63,8.83,8.83,0,0,0-6.23.56V9.88h98.52Zm0-31.92H99.59V4.53A.55.55,0,0,0,99,4a.55.55,0,0,0-.55.55V7.14H97.24V4.53a.55.55,0,1,0-1.09,0V7.14H94.9V4.53a.55.55,0,1,0-1.09,0V7.14H92.56V4.53a.55.55,0,1,0-1.1,0V7.14H89.79V2.74h11.47Z"/></g></g></svg>